<svg width="160" height="40" viewBox="0 0 160 40" fill="none" xmlns="http://www.w3.org/2000/svg">
<path d="M137.469 17.4688C138.177 16.7604 139.031 16.4062 140.031 16.4062C141.031 16.4062 141.875 16.7604 142.562 17.4688C143.271 18.1562 143.625 19 143.625 20C143.625 21 143.271 21.8542 142.562 22.5625C141.875 23.25 141.031 23.5938 140.031 23.5938C139.031 23.5938 138.177 23.25 137.469 22.5625C136.781 21.8542 136.438 21 136.438 20C136.438 19 136.781 18.1562 137.469 17.4688ZM138.375 21.6562C138.833 22.1146 139.385 22.3438 140.031 22.3438C140.677 22.3438 141.229 22.1146 141.688 21.6562C142.146 21.1979 142.375 20.6458 142.375 20C142.375 19.3542 142.146 18.8021 141.688 18.3438C141.229 17.8854 140.677 17.6562 140.031 17.6562C139.385 17.6562 138.833 17.8854 138.375 18.3438C137.917 18.8021 137.688 19.3542 137.688 20C137.688 20.6458 137.917 21.1979 138.375 21.6562ZM144.344 15.6875C144.51 15.8333 144.594 16.0208 144.594 16.25C144.594 16.4792 144.51 16.6771 144.344 16.8438C144.198 17.0104 144.01 17.0938 143.781 17.0938C143.552 17.0938 143.354 17.0104 143.188 16.8438C143.021 16.6771 142.938 16.4792 142.938 16.25C142.938 16.0208 143.021 15.8333 143.188 15.6875C143.354 15.5208 143.552 15.4375 143.781 15.4375C144.01 15.4375 144.198 15.5208 144.344 15.6875ZM147 17.125C147.021 17.6875 147.031 18.6458 147.031 20C147.031 21.3542 147.021 22.3125 147 22.875C146.938 24.1458 146.552 25.1354 145.844 25.8438C145.156 26.5312 144.177 26.8958 142.906 26.9375C142.344 26.9792 141.385 27 140.031 27C138.677 27 137.719 26.9792 137.156 26.9375C135.885 26.875 134.906 26.5 134.219 25.8125C133.948 25.5625 133.729 25.2708 133.562 24.9375C133.396 24.6042 133.271 24.2812 133.188 23.9688C133.125 23.6562 133.094 23.2917 133.094 22.875C133.052 22.3125 133.031 21.3542 133.031 20C133.031 18.6458 133.052 17.6771 133.094 17.0938C133.156 15.8438 133.531 14.875 134.219 14.1875C134.906 13.4792 135.885 13.0938 137.156 13.0312C137.719 13.0104 138.677 13 140.031 13C141.385 13 142.344 13.0104 142.906 13.0312C144.177 13.0938 145.156 13.4792 145.844 14.1875C146.552 14.875 146.938 15.8542 147 17.125ZM145.5 24.125C145.562 23.9583 145.615 23.75 145.656 23.5C145.698 23.2292 145.729 22.9167 145.75 22.5625C145.771 22.1875 145.781 21.8854 145.781 21.6562C145.781 21.4271 145.781 21.1042 145.781 20.6875C145.781 20.2708 145.781 20.0417 145.781 20C145.781 19.9375 145.781 19.7083 145.781 19.3125C145.781 18.8958 145.781 18.5729 145.781 18.3438C145.781 18.1146 145.771 17.8229 145.75 17.4688C145.729 17.0938 145.698 16.7812 145.656 16.5312C145.615 16.2604 145.562 16.0417 145.5 15.875C145.25 15.2292 144.802 14.7812 144.156 14.5312C143.99 14.4688 143.771 14.4167 143.5 14.375C143.25 14.3333 142.938 14.3021 142.562 14.2812C142.208 14.2604 141.917 14.25 141.688 14.25C141.479 14.25 141.156 14.25 140.719 14.25C140.302 14.25 140.073 14.25 140.031 14.25C139.99 14.25 139.76 14.25 139.344 14.25C138.927 14.25 138.604 14.25 138.375 14.25C138.146 14.25 137.844 14.2604 137.469 14.2812C137.115 14.3021 136.802 14.3333 136.531 14.375C136.281 14.4167 136.073 14.4688 135.906 14.5312C135.26 14.7812 134.812 15.2292 134.562 15.875C134.5 16.0417 134.448 16.2604 134.406 16.5312C134.365 16.7812 134.333 17.0938 134.312 17.4688C134.292 17.8229 134.281 18.1146 134.281 18.3438C134.281 18.5521 134.281 18.875 134.281 19.3125C134.281 19.7292 134.281 19.9583 134.281 20C134.281 20.0833 134.281 20.2812 134.281 20.5938C134.281 20.8854 134.281 21.1354 134.281 21.3438C134.281 21.5312 134.281 21.7812 134.281 22.0938C134.302 22.4062 134.323 22.6771 134.344 22.9062C134.365 23.1146 134.396 23.3333 134.438 23.5625C134.479 23.7917 134.521 23.9792 134.562 24.125C134.833 24.7708 135.281 25.2188 135.906 25.4688C136.073 25.5312 136.281 25.5833 136.531 25.625C136.802 25.6667 137.115 25.6979 137.469 25.7188C137.844 25.7396 138.135 25.75 138.344 25.75C138.573 25.75 138.896 25.75 139.312 25.75C139.75 25.75 139.99 25.75 140.031 25.75C140.094 25.75 140.323 25.75 140.719 25.75C141.135 25.75 141.458 25.75 141.688 25.75C141.917 25.75 142.208 25.7396 142.562 25.7188C142.938 25.6979 143.25 25.6667 143.5 25.625C143.771 25.5833 143.99 25.5312 144.156 25.4688C144.802 25.1979 145.25 24.75 145.5 24.125Z" fill="white"/>
<circle opacity="0.4" cx="140" cy="20" r="19.5" stroke="white"/>
<path d="M86.3438 16.75C86.3646 16.8333 86.375 16.9688 86.375 17.1562C86.375 18.2604 86.1667 19.3646 85.75 20.4688C85.3333 21.5521 84.7396 22.5521 83.9688 23.4688C83.2188 24.3646 82.2396 25.0938 81.0312 25.6562C79.8229 26.2188 78.4896 26.5 77.0312 26.5C75.1979 26.5 73.5208 26.0104 72 25.0312C72.2292 25.0521 72.4896 25.0625 72.7812 25.0625C74.3021 25.0625 75.6667 24.5938 76.875 23.6562C76.1458 23.6562 75.5 23.4479 74.9375 23.0312C74.3958 22.5938 74.0208 22.0521 73.8125 21.4062C74.0208 21.4271 74.2188 21.4375 74.4062 21.4375C74.6979 21.4375 74.9896 21.4062 75.2812 21.3438C74.7812 21.2396 74.3333 21.0312 73.9375 20.7188C73.5417 20.4062 73.2292 20.0312 73 19.5938C72.7708 19.1354 72.6562 18.6458 72.6562 18.125V18.0625C73.1146 18.3333 73.6042 18.4792 74.125 18.5C73.1458 17.8333 72.6562 16.9167 72.6562 15.75C72.6562 15.1667 72.8125 14.6146 73.125 14.0938C73.9375 15.1146 74.9271 15.9271 76.0938 16.5312C77.2812 17.1354 78.5417 17.4688 79.875 17.5312C79.8333 17.2812 79.8125 17.0312 79.8125 16.7812C79.8125 15.8854 80.125 15.1146 80.75 14.4688C81.3958 13.8229 82.1667 13.5 83.0625 13.5C84.0208 13.5 84.8229 13.8438 85.4688 14.5312C86.2188 14.3854 86.9167 14.125 87.5625 13.75C87.3125 14.5208 86.8333 15.125 86.125 15.5625C86.75 15.4792 87.375 15.3021 88 15.0312C87.5417 15.6979 86.9896 16.2708 86.3438 16.75Z" fill="white"/>
<circle opacity="0.4" cx="80" cy="20" r="19.5" stroke="white"/>
<path d="M23.7188 21H21.375V28H18.25V21H15.7188V18.0938H18.25V15.9062C18.25 15.0729 18.4062 14.3646 18.7188 13.7812C19.0312 13.1979 19.4688 12.7604 20.0312 12.4688C20.6146 12.1562 21.2812 12 22.0312 12C22.3646 12 22.7188 12.0208 23.0938 12.0625C23.4688 12.0833 23.7604 12.1146 23.9688 12.1562L24.2812 12.1875V14.6562H23.0312C22.4479 14.6562 22.0208 14.8125 21.75 15.125C21.5 15.4167 21.375 15.7812 21.375 16.2188V18.0938H24.1562L23.7188 21Z" fill="white"/>
<circle opacity="0.4" cx="20" cy="20" r="19.5" stroke="white"/>
</svg>
